<svg width="100%" viewBox="0 0 680 200" role="img" xmlns="http://www.w3.org/2000/svg">
  <title>Pet Revival Season banner</title>
  <desc>Deep night sky banner with pixel-style title and tagline</desc>
  <rect width="680" height="200" fill="#0e0f1a" rx="8"/>
  <circle cx="60" cy="28" r="1.2" fill="#c9b8e8" opacity="0.7"/>
  <circle cx="130" cy="55" r="0.8" fill="#e0d5f5" opacity="0.5"/>
  <circle cx="210" cy="18" r="1" fill="#c9b8e8" opacity="0.6"/>
  <circle cx="310" cy="42" r="0.8" fill="#e0d5f5" opacity="0.4"/>
  <circle cx="420" cy="22" r="1.2" fill="#c9b8e8" opacity="0.7"/>
  <circle cx="500" cy="50" r="0.8" fill="#e0d5f5" opacity="0.5"/>
  <circle cx="590" cy="30" r="1" fill="#c9b8e8" opacity="0.6"/>
  <circle cx="640" cy="14" r="0.8" fill="#e0d5f5" opacity="0.4"/>
  <circle cx="88" cy="70" r="0.7" fill="#c9b8e8" opacity="0.35"/>
  <circle cx="460" cy="68" r="0.7" fill="#e0d5f5" opacity="0.35"/>
  <circle cx="350" cy="15" r="0.9" fill="#c9b8e8" opacity="0.5"/>
  <circle cx="660" cy="60" r="0.6" fill="#e0d5f5" opacity="0.3"/>
  <rect x="40" y="82" width="6" height="6" fill="#3d2f6e" rx="1"/>
  <rect x="48" y="82" width="6" height="6" fill="#5a4496" rx="1"/>
  <rect x="40" y="90" width="6" height="6" fill="#5a4496" rx="1"/>
  <rect x="48" y="90" width="6" height="6" fill="#7c63b8" rx="1"/>
  <rect x="56" y="82" width="6" height="6" fill="#3d2f6e" rx="1"/>
  <rect x="56" y="90" width="6" height="6" fill="#5a4496" rx="1"/>
  <rect x="40" y="98" width="6" height="6" fill="#3d2f6e" rx="1"/>
  <rect x="48" y="98" width="6" height="6" fill="#5a4496" rx="1"/>
  <rect x="56" y="98" width="6" height="6" fill="#3d2f6e" rx="1"/>
  <rect x="618" y="82" width="6" height="6" fill="#3d2f6e" rx="1"/>
  <rect x="626" y="82" width="6" height="6" fill="#5a4496" rx="1"/>
  <rect x="618" y="90" width="6" height="6" fill="#5a4496" rx="1"/>
  <rect x="626" y="90" width="6" height="6" fill="#7c63b8" rx="1"/>
  <rect x="634" y="82" width="6" height="6" fill="#3d2f6e" rx="1"/>
  <rect x="634" y="90" width="6" height="6" fill="#5a4496" rx="1"/>
  <rect x="618" y="98" width="6" height="6" fill="#3d2f6e" rx="1"/>
  <rect x="626" y="98" width="6" height="6" fill="#5a4496" rx="1"/>
  <rect x="634" y="98" width="6" height="6" fill="#3d2f6e" rx="1"/>
  <line x1="40" y1="78" x2="640" y2="78" stroke="#1e1a35" stroke-width="1" stroke-dasharray="4 3"/>
  <text x="340" y="108" text-anchor="middle" font-family="'Courier New', monospace" font-size="32" font-weight="700" fill="#e8e0f8" letter-spacing="2">🐣 Pet Revival Season</text>
  <text x="340" y="138" text-anchor="middle" font-family="'Courier New', monospace" font-size="13" fill="#9b8fc2" letter-spacing="1">一个试图把时代眼泪重新养活的桌面宠物项目</text>
  <line x1="40" y1="158" x2="640" y2="158" stroke="#1e1a35" stroke-width="1" stroke-dasharray="4 3"/>
  <rect x="198" y="168" width="80" height="20" rx="4" fill="#1a1730"/>
  <text x="238" y="182" text-anchor="middle" font-family="'Courier New', monospace" font-size="11" fill="#7c63b8">Tauri 2.x</text>
  <rect x="290" y="168" width="100" height="20" rx="4" fill="#1a1730"/>
  <text x="340" y="182" text-anchor="middle" font-family="'Courier New', monospace" font-size="11" fill="#7c63b8">Rust · Canvas</text>
  <rect x="402" y="168" width="80" height="20" rx="4" fill="#1a1730"/>
  <text x="442" y="182" text-anchor="middle" font-family="'Courier New', monospace" font-size="11" fill="#7c63b8">MIT License</text>
</svg>
